<svg xmlns="http://www.w3.org/2000/svg" viewBox="0 0 45.08 23.23"><defs><style>.cls-1{fill:none;stroke:#414042;stroke-linecap:round;stroke-linejoin:round;stroke-width:1.1px;fill-rule:evenodd;}</style></defs><title>3dAsset 1</title><g id="Layer_2" data-name="Layer 2"><g id="Layer_1-2" data-name="Layer 1"><path class="cls-1" d="M41.33,6.77a6,6,0,1,1-9.22-5.16A6.1,6.1,0,0,1,35.33.7,6,6,0,0,1,41.33,6.77Z"/><path class="cls-1" d="M44.53,22.53,42.84,15l-4.23-.94a6.19,6.19,0,0,1-6.63,0l-4.31,1.11-1.53,7.32h4.22"/><path class="cls-1" d="M30.66,14.84A6.36,6.36,0,0,0,35,16.59V21.9"/><path class="cls-1" d="M36.57,16.54a3.85,3.85,0,0,0,3.29-2"/><path class="cls-1" d="M29.26,6.7,34,4.08l10.28,6.55a5.53,5.53,0,0,1-.52-5.27c1.29-2.83-1.8-4.11-3.6-2.44"/><path class="cls-1" d="M15.74,6.62A6,6,0,1,1,6.53,1.46,5.87,5.87,0,0,1,9.74.55,6,6,0,0,1,15.74,6.62Z"/><path class="cls-1" d="M19,22.68l-1.7-7.49L13,14.25a6.2,6.2,0,0,1-6.64,0L2.08,15.37.55,22.68H4.78"/><path class="cls-1" d="M5.07,15a6.39,6.39,0,0,0,4.38,1.75v5.31"/><path class="cls-1" d="M11,16.69a3.83,3.83,0,0,0,3.28-2"/><polyline class="cls-1" points="3.67 6.55 7.99 3.73 15.7 7.07"/></g></g></svg>